<svg width="152" height="71" viewBox="0 0 152 71" fill="none" xmlns="http://www.w3.org/2000/svg">
<path d="M1 69C5.4444 68.3926 11.0513 65.5487 14.8966 63.3225M19.3793 60.534C20.1384 57.0286 20.4094 55.07 19.8276 51.6224C16.3264 45.0291 13.9933 43.4053 9.51724 42.2652C6.21768 46.7471 5.46681 49.1899 6.37931 53.4047C7.73127 58.1859 9.78249 60.2721 14.8966 63.3225M19.3793 60.534C19.3793 60.534 17.5608 61.78 14.8966 63.3225M19.3793 60.534C19.3793 60.534 20.5695 58.9272 22.1089 56.5238M28.7931 41.8196C23.6018 41.0165 21.4598 39.8262 19.3793 36.0271M28.7931 41.8196C34.1477 40.9483 36.5385 39.7183 39.5517 36.0271C42.58 35.6829 44.0805 35.3355 46.7241 34.6903C50.9166 32.6601 51.8798 31.1983 53 28.4522V20.8773C52.5023 18.2571 51.7586 17.3511 49.8621 16.4215M28.7931 41.8196C28.2282 45.6687 25.7576 50.5044 23.4892 54.2959M19.3793 36.0271L11.7586 33.3536C9.30302 31.9987 8.32055 30.8322 7.72414 27.561V20.8773C8.39862 18.4892 8.99192 17.4021 10.8621 16.4215M19.3793 36.0271C22.3092 34.1329 23.0512 32.9395 23.4892 30.6801M10.8621 16.4215V9.29226C11.5273 6.68773 12.0783 5.35252 14.4483 3.9453C16.0757 3.13314 17.4519 2.74133 20.7241 2.16298C23.0319 2.92936 24.3412 3.35166 27 3.9453M10.8621 16.4215C12.9652 22.9175 15.2708 26.1901 23.4892 30.6801M27 3.9453H32.3793M27 3.9453C20.4837 8.1345 18.2701 11.0375 17.1379 17.3127C17.725 22.9305 19.4452 25.7881 23.4892 30.6801M32.3793 3.9453L39.5517 2.16298C42.8617 1.6775 44.341 2.27809 46.7241 3.9453C49.0181 5.79194 49.7896 6.94346 49.8621 9.29226V16.4215M32.3793 3.9453C37.6258 6.28745 39.8124 8.07313 40.4483 13.3025C40.9791 16.8128 40.3172 18.0797 38.6552 19.9862C36.4488 21.0186 34.8989 21.5912 33.2759 21.9003M49.8621 16.4215C47.2006 22.7086 44.5064 26.1276 39.318 28.4522M23.4892 54.2959C23.0138 55.0906 22.5472 55.8395 22.1089 56.5238M23.4892 54.2959C26.0211 50.9384 27.5985 49.2563 31.4828 47.6122C35.0795 45.9867 36.6155 46.5294 39.318 47.6122L42.2414 49.3945C42.4415 52.9385 41.1256 54.4029 38.6552 56.9693C36.2201 59.0916 34.8433 59.679 32.3793 60.0884H25.6552C22.6308 58.8206 22.3073 58.0059 22.1089 56.5238M23.4892 30.6801H32.3793C35.1202 30.0279 37.3911 29.3155 39.318 28.4522M27.8966 23.1053C28.7464 22.383 29.2417 22.258 30.1379 22.2141C31.3132 22.1754 32.3075 22.0847 33.2759 21.9003M27.8966 23.1053C27.2353 25.3504 28.117 26.3469 32.3793 27.561L39.318 28.4522M27.8966 23.1053C26.1193 22.5954 25.5747 21.8694 25.2069 19.9862C25.2069 18.5941 25.2069 17.8136 25.2069 16.4215C26.2463 14.7095 27.09 14.3604 28.7931 14.1936C30.5899 13.9686 31.3464 14.2081 32.3793 15.0848C33.7176 18.1111 33.4319 19.4254 33.2759 21.9003" stroke="#E71D36" stroke-width="3"/>
<path d="M74.504 13.368C73.896 15.128 73.312 16.76 72.752 18.264C72.208 19.752 71.672 21.168 71.144 22.512C70.616 23.856 70.088 25.144 69.56 26.376C69.048 27.592 68.52 28.8 67.976 30H65.792C65.248 28.8 64.712 27.592 64.184 26.376C63.672 25.144 63.144 23.856 62.6 22.512C62.072 21.168 61.528 19.752 60.968 18.264C60.408 16.76 59.832 15.128 59.24 13.368H61.808C62.672 15.896 63.52 18.328 64.352 20.664C65.184 23 66.04 25.192 66.92 27.24C67.8 25.208 68.656 23.024 69.488 20.688C70.32 18.336 71.16 15.896 72.008 13.368H74.504ZM80.2846 28.392C80.8126 28.392 81.2766 28.384 81.6766 28.368C82.0926 28.336 82.4366 28.288 82.7086 28.224V24.504C82.5486 24.424 82.2846 24.36 81.9166 24.312C81.5646 24.248 81.1326 24.216 80.6206 24.216C80.2846 24.216 79.9246 24.24 79.5406 24.288C79.1726 24.336 78.8286 24.44 78.5086 24.6C78.2046 24.744 77.9486 24.952 77.7406 25.224C77.5326 25.48 77.4286 25.824 77.4286 26.256C77.4286 27.056 77.6846 27.616 78.1966 27.936C78.7086 28.24 79.4046 28.392 80.2846 28.392ZM80.0926 17.208C80.9886 17.208 81.7406 17.328 82.3486 17.568C82.9726 17.792 83.4686 18.12 83.8366 18.552C84.2206 18.968 84.4926 19.472 84.6526 20.064C84.8126 20.64 84.8926 21.28 84.8926 21.984V29.784C84.7006 29.816 84.4286 29.864 84.0766 29.928C83.7406 29.976 83.3566 30.024 82.9246 30.072C82.4926 30.12 82.0206 30.16 81.5086 30.192C81.0126 30.24 80.5166 30.264 80.0206 30.264C79.3166 30.264 78.6686 30.192 78.0766 30.048C77.4846 29.904 76.9726 29.68 76.5406 29.376C76.1086 29.056 75.7726 28.64 75.5326 28.128C75.2926 27.616 75.1726 27 75.1726 26.28C75.1726 25.592 75.3086 25 75.5806 24.504C75.8686 24.008 76.2526 23.608 76.7326 23.304C77.2126 23 77.7726 22.776 78.4126 22.632C79.0526 22.488 79.7246 22.416 80.4286 22.416C80.6526 22.416 80.8846 22.432 81.1246 22.464C81.3646 22.48 81.5886 22.512 81.7966 22.56C82.0206 22.592 82.2126 22.624 82.3726 22.656C82.5326 22.688 82.6446 22.712 82.7086 22.728V22.104C82.7086 21.736 82.6686 21.376 82.5886 21.024C82.5086 20.656 82.3646 20.336 82.1566 20.064C81.9486 19.776 81.6606 19.552 81.2926 19.392C80.9406 19.216 80.4766 19.128 79.9006 19.128C79.1646 19.128 78.5166 19.184 77.9566 19.296C77.4126 19.392 77.0046 19.496 76.7326 19.608L76.4686 17.76C76.7566 17.632 77.2366 17.512 77.9086 17.4C78.5806 17.272 79.3086 17.208 80.0926 17.208ZM92.3437 30.24C90.9677 30.208 89.9917 29.912 89.4157 29.352C88.8397 28.792 88.5517 27.92 88.5517 26.736V11.76L90.7837 11.376V26.376C90.7837 26.744 90.8157 27.048 90.8797 27.288C90.9437 27.528 91.0477 27.72 91.1917 27.864C91.3357 28.008 91.5277 28.12 91.7677 28.2C92.0077 28.264 92.3037 28.32 92.6557 28.368L92.3437 30.24ZM94.4662 23.784C94.4662 22.68 94.6262 21.72 94.9462 20.904C95.2662 20.072 95.6902 19.384 96.2182 18.84C96.7462 18.296 97.3542 17.888 98.0422 17.616C98.7302 17.344 99.4342 17.208 100.154 17.208C101.834 17.208 103.122 17.736 104.018 18.792C104.914 19.832 105.362 21.424 105.362 23.568C105.362 23.664 105.362 23.792 105.362 23.952C105.362 24.096 105.354 24.232 105.338 24.36H96.7942C96.8902 25.656 97.2662 26.64 97.9222 27.312C98.5782 27.984 99.6022 28.32 100.994 28.32C101.778 28.32 102.434 28.256 102.962 28.128C103.506 27.984 103.914 27.848 104.186 27.72L104.498 29.592C104.226 29.736 103.746 29.888 103.058 30.048C102.386 30.208 101.618 30.288 100.754 30.288C99.6662 30.288 98.7222 30.128 97.9222 29.808C97.1382 29.472 96.4902 29.016 95.9782 28.44C95.4662 27.864 95.0822 27.184 94.8262 26.4C94.5862 25.6 94.4662 24.728 94.4662 23.784ZM103.034 22.56C103.05 21.552 102.794 20.728 102.266 20.088C101.754 19.432 101.042 19.104 100.13 19.104C99.6182 19.104 99.1622 19.208 98.7622 19.416C98.3782 19.608 98.0502 19.864 97.7782 20.184C97.5062 20.504 97.2902 20.872 97.1302 21.288C96.9862 21.704 96.8902 22.128 96.8422 22.56H103.034ZM113.176 17.256C113.368 17.256 113.584 17.272 113.824 17.304C114.08 17.32 114.328 17.352 114.568 17.4C114.808 17.432 115.024 17.472 115.216 17.52C115.424 17.552 115.576 17.584 115.672 17.616L115.288 19.56C115.112 19.496 114.816 19.424 114.4 19.344C114 19.248 113.48 19.2 112.84 19.2C112.424 19.2 112.008 19.248 111.592 19.344C111.192 19.424 110.928 19.48 110.8 19.512V30H108.568V18.048C109.096 17.856 109.752 17.68 110.536 17.52C111.32 17.344 112.2 17.256 113.176 17.256ZM116.878 32.328C117.054 32.408 117.278 32.48 117.55 32.544C117.838 32.624 118.118 32.664 118.39 32.664C119.27 32.664 119.958 32.464 120.454 32.064C120.95 31.68 121.398 31.048 121.798 30.168C120.79 28.248 119.846 26.216 118.966 24.072C118.102 21.912 117.382 19.728 116.806 17.52H119.206C119.382 18.24 119.59 19.016 119.83 19.848C120.086 20.68 120.366 21.536 120.67 22.416C120.974 23.296 121.302 24.176 121.654 25.056C122.006 25.936 122.374 26.784 122.758 27.6C123.366 25.92 123.894 24.256 124.342 22.608C124.79 20.96 125.214 19.264 125.614 17.52H127.918C127.342 19.872 126.702 22.136 125.998 24.312C125.294 26.472 124.534 28.496 123.718 30.384C123.398 31.104 123.062 31.72 122.71 32.232C122.374 32.76 121.998 33.192 121.582 33.528C121.166 33.864 120.694 34.112 120.166 34.272C119.654 34.432 119.07 34.512 118.414 34.512C118.238 34.512 118.054 34.496 117.862 34.464C117.67 34.448 117.478 34.416 117.286 34.368C117.11 34.336 116.942 34.296 116.782 34.248C116.638 34.2 116.534 34.16 116.47 34.128L116.878 32.328ZM71.528 41.368H73.856V58H71.528V50.32H63.392V58H61.064V41.368H63.392V48.304H71.528V41.368ZM88.8579 51.76C88.8579 52.752 88.7139 53.648 88.4259 54.448C88.1379 55.248 87.7299 55.936 87.2019 56.512C86.6899 57.088 86.0739 57.536 85.3539 57.856C84.6339 58.16 83.8499 58.312 83.0019 58.312C82.1539 58.312 81.3699 58.16 80.6499 57.856C79.9299 57.536 79.3059 57.088 78.7779 56.512C78.2659 55.936 77.8659 55.248 77.5779 54.448C77.2899 53.648 77.1459 52.752 77.1459 51.76C77.1459 50.784 77.2899 49.896 77.5779 49.096C77.8659 48.28 78.2659 47.584 78.7779 47.008C79.3059 46.432 79.9299 45.992 80.6499 45.688C81.3699 45.368 82.1539 45.208 83.0019 45.208C83.8499 45.208 84.6339 45.368 85.3539 45.688C86.0739 45.992 86.6899 46.432 87.2019 47.008C87.7299 47.584 88.1379 48.28 88.4259 49.096C88.7139 49.896 88.8579 50.784 88.8579 51.76ZM86.5299 51.76C86.5299 50.352 86.2099 49.24 85.5699 48.424C84.9459 47.592 84.0899 47.176 83.0019 47.176C81.9139 47.176 81.0499 47.592 80.4099 48.424C79.7859 49.24 79.4739 50.352 79.4739 51.76C79.4739 53.168 79.7859 54.288 80.4099 55.12C81.0499 55.936 81.9139 56.344 83.0019 56.344C84.0899 56.344 84.9459 55.936 85.5699 55.12C86.2099 54.288 86.5299 53.168 86.5299 51.76ZM94.0861 45.52H98.8141V47.392H94.0861V53.152C94.0861 53.776 94.1341 54.296 94.2301 54.712C94.3261 55.112 94.4701 55.432 94.6621 55.672C94.8541 55.896 95.0941 56.056 95.3821 56.152C95.6701 56.248 96.0061 56.296 96.3901 56.296C97.0621 56.296 97.5981 56.224 97.9981 56.08C98.4141 55.92 98.7021 55.808 98.8621 55.744L99.2941 57.592C99.0701 57.704 98.6781 57.84 98.1181 58C97.5581 58.176 96.9181 58.264 96.1981 58.264C95.3501 58.264 94.6461 58.16 94.0861 57.952C93.5421 57.728 93.1021 57.4 92.7661 56.968C92.4301 56.536 92.1901 56.008 92.0461 55.384C91.9181 54.744 91.8541 54.008 91.8541 53.176V42.04L94.0861 41.656V45.52ZM100.724 51.784C100.724 50.68 100.884 49.72 101.204 48.904C101.524 48.072 101.948 47.384 102.476 46.84C103.004 46.296 103.612 45.888 104.3 45.616C104.988 45.344 105.692 45.208 106.412 45.208C108.092 45.208 109.38 45.736 110.276 46.792C111.172 47.832 111.62 49.424 111.62 51.568C111.62 51.664 111.62 51.792 111.62 51.952C111.62 52.096 111.612 52.232 111.596 52.36H103.052C103.148 53.656 103.524 54.64 104.18 55.312C104.836 55.984 105.86 56.32 107.252 56.32C108.036 56.32 108.692 56.256 109.22 56.128C109.764 55.984 110.172 55.848 110.444 55.72L110.756 57.592C110.484 57.736 110.004 57.888 109.316 58.048C108.644 58.208 107.876 58.288 107.012 58.288C105.924 58.288 104.98 58.128 104.18 57.808C103.396 57.472 102.748 57.016 102.236 56.44C101.724 55.864 101.34 55.184 101.084 54.4C100.844 53.6 100.724 52.728 100.724 51.784ZM109.292 50.56C109.308 49.552 109.052 48.728 108.524 48.088C108.012 47.432 107.3 47.104 106.388 47.104C105.876 47.104 105.42 47.208 105.02 47.416C104.636 47.608 104.308 47.864 104.036 48.184C103.764 48.504 103.548 48.872 103.388 49.288C103.244 49.704 103.148 50.128 103.1 50.56H109.292ZM118.57 58.24C117.194 58.208 116.218 57.912 115.642 57.352C115.066 56.792 114.778 55.92 114.778 54.736V39.76L117.01 39.376V54.376C117.01 54.744 117.042 55.048 117.106 55.288C117.17 55.528 117.274 55.72 117.418 55.864C117.562 56.008 117.754 56.12 117.994 56.2C118.234 56.264 118.53 56.32 118.882 56.368L118.57 58.24Z" fill="black"/>
</svg>
